<?xml version="1.0" standalone="no"?>
<!DOCTYPE svg PUBLIC "-//W3C//DTD SVG 20010904//EN"
 "http://www.w3.org/TR/2001/REC-SVG-20010904/DTD/svg10.dtd">
<svg version="1.0" xmlns="http://www.w3.org/2000/svg"
 width="2018.000000pt" height="2020.000000pt" viewBox="0 0 2018.000000 2020.000000"
 preserveAspectRatio="xMidYMid meet">

<g transform="translate(0.000000,2020.000000) scale(0.100000,-0.100000)"
fill="#000000" stroke="none">
<path d="M0 10100 l0 -10100 10090 0 10090 0 0 10100 0 10100 -10090 0 -10090
0 0 -10100z m18820 9647 c501 -133 855 -500 972 -1005 l23 -97 3 -8485 c2
-6016 0 -8517 -8 -8595 -26 -264 -115 -488 -279 -695 -193 -245 -500 -426
-805 -475 -80 -13 -1148 -15 -8611 -15 -7654 0 -8529 2 -8610 16 -255 44 -494
165 -683 348 -186 179 -300 376 -370 638 l-27 103 -3 8540 c-3 6482 0 8560 8
8625 41 294 160 532 374 746 202 201 434 323 704 369 63 10 1670 12 8642 11
l8565 -1 105 -28z"/>
<path d="M2100 10080 l0 -8020 4010 0 4010 0 0 8020 0 8020 -4010 0 -4010 0 0
-8020z"/>
</g>
</svg>
